<svg xmlns="http://www.w3.org/2000/svg" viewBox="0 0 48 48">
  <defs>
    <style>
      .a {
        fill: none;
        stroke: #000;
        stroke-linecap: round;
        stroke-linejoin: round;
        stroke-width: 2px;
      }
    </style>
  </defs>
  <title>icn_7</title>
  <path class="a" d="M36,12h0a3.5356,3.5356,0,0,0-5,0l-7,7-7-7a3.5356,3.5356,0,0,0-5,0h0a3.5356,3.5356,0,0,0,0,5l7,7-7,7a3.5356,3.5356,0,0,0,0,5h0a3.5356,3.5356,0,0,0,5,0l7-7,7,7a3.5356,3.5356,0,0,0,5,0h0a3.5356,3.5356,0,0,0,0-5l-7-7,7-7A3.5356,3.5356,0,0,0,36,12Z"/>
</svg>
